<?xml version="1.0" encoding="UTF-8"?>
<svg width="66px" height="35px" viewBox="0 0 66 35" version="1.1" xmlns="http://www.w3.org/2000/svg" xmlns:xlink="http://www.w3.org/1999/xlink">
    <title>Group 55 Copy</title>
    <g id="Arreglos" stroke="none" stroke-width="1" fill="none" fill-rule="evenodd">
        <g id="Artboard" transform="translate(-137.000000, -7.000000)">
            <g id="Group-55-Copy" transform="translate(138.000000, 8.000000)">
                <path d="M60.8113725,33 L3.18862752,33 C1.42751735,33 0,31.5505141 0,29.7628514 L0,3.2376985 C0,1.44948594 1.42751735,0 3.18862752,0 L60.8113725,0 C62.5724827,0 64,1.44948594 64,3.2376985 L64,29.7628514 C64,31.5505141 62.5724827,33 60.8113725,33 Z" id="Stroke-1" stroke="#222222" stroke-width="1.08358321"></path>
                <path d="M22.2837841,16.0081866 C18.8433373,16.0081866 16.0446235,18.8499708 16.0446235,22.3433639 C16.0446235,25.8362072 18.8433373,28.6785413 22.2837841,28.6785413 C25.7242308,28.6785413 28.5229447,25.8362072 28.5229447,22.3433639 C28.5229447,18.8499708 25.7242308,16.0081866 22.2837841,16.0081866 M22.2837841,29.778303 C18.2465527,29.778303 14.9615299,26.4427257 14.9615299,22.3433639 C14.9615299,18.2434523 18.2465527,14.9084248 22.2837841,14.9084248 C26.3215569,14.9084248 29.6060382,18.2434523 29.6060382,22.3433639 C29.6060382,26.4427257 26.3215569,29.778303 22.2837841,29.778303" id="Fill-3" fill="#222222"></path>
                <path d="M22.2837841,19.4506057 C20.7132984,19.4506057 19.4352479,20.7483245 19.4352479,22.342979 C19.4352479,23.9381834 20.7132984,25.2359022 22.2837841,25.2359022 C23.8542698,25.2359022 25.1323202,23.9381834 25.1323202,22.342979 C25.1323202,20.7483245 23.8542698,19.4506057 22.2837841,19.4506057 M22.2837841,26.3356639 C20.1159722,26.3356639 18.3521543,24.544702 18.3521543,22.342979 C18.3521543,20.1418059 20.1159722,18.350844 22.2837841,18.350844 C24.4515959,18.350844 26.2154138,20.1418059 26.2154138,22.342979 C26.2154138,24.544702 24.4515959,26.3356639 22.2837841,26.3356639" id="Fill-5" fill="#222222"></path>
                <path d="M21.1393332,22.3433639 C21.1393332,22.9850749 21.6516365,23.5052622 22.2841631,23.5052622 C22.9161482,23.5052622 23.4289931,22.9850749 23.4289931,22.3433639 C23.4289931,21.701653 22.9161482,21.1809158 22.2841631,21.1809158 C21.6516365,21.1809158 21.1393332,21.701653 21.1393332,22.3433639" id="Fill-7" fill="#222222"></path>
                <path d="M16.3830902,28.3348658 L16.3830902,28.3348658 C16.171887,28.1198624 16.171887,27.7723377 16.3830902,27.5573342 L27.4187307,16.3518621 C27.6304755,16.1368587 27.9732747,16.1368587 28.1844779,16.3518621 C28.3962227,16.5663156 28.3962227,16.9143902 28.1844779,17.1293936 L17.1488374,28.3348658 C16.9376341,28.5498692 16.594835,28.5498692 16.3830902,28.3348658" id="Fill-9" fill="#222222"></path>
                <path d="M27.4189474,28.3348658 L16.3833068,17.1293936 C16.171562,16.9143902 16.171562,16.5663156 16.3833068,16.3518621 C16.5945101,16.1368587 16.9378507,16.1368587 17.149054,16.3518621 L28.1846945,27.5573342 C28.3964393,27.7723377 28.3964393,28.1198624 28.1846945,28.3348658 C27.9734913,28.5498692 27.6306922,28.5498692 27.4189474,28.3348658" id="Fill-11" fill="#222222"></path>
                <path d="M37.7868607,16.0081866 C34.3464139,16.0081866 31.5477001,18.8499708 31.5477001,22.3433639 C31.5477001,25.8362072 34.3464139,28.6785413 37.7868607,28.6785413 C41.2273075,28.6785413 44.0260213,25.8362072 44.0260213,22.3433639 C44.0260213,18.8499708 41.2273075,16.0081866 37.7868607,16.0081866 M37.7868607,29.778303 C33.7496294,29.778303 30.4646065,26.4427257 30.4646065,22.3433639 C30.4646065,18.2434523 33.7496294,14.9084248 37.7868607,14.9084248 C41.8246336,14.9084248 45.1091149,18.2434523 45.1091149,22.3433639 C45.1091149,26.4427257 41.8246336,29.778303 37.7868607,29.778303" id="Fill-13" fill="#222222"></path>
                <path d="M37.7868607,19.4506057 C36.216375,19.4506057 34.9383246,20.7483245 34.9383246,22.342979 C34.9383246,23.9381834 36.216375,25.2359022 37.7868607,25.2359022 C39.3573464,25.2359022 40.6353969,23.9381834 40.6353969,22.342979 C40.6353969,20.7483245 39.3573464,19.4506057 37.7868607,19.4506057 M37.7868607,26.3356639 C35.6190489,26.3356639 33.855231,24.544702 33.855231,22.342979 C33.855231,20.1418059 35.6190489,18.350844 37.7868607,18.350844 C39.9546725,18.350844 41.7184904,20.1418059 41.7184904,22.342979 C41.7184904,24.544702 39.9546725,26.3356639 37.7868607,26.3356639" id="Fill-15" fill="#222222"></path>
                <path d="M36.6421933,22.3433639 C36.6421933,22.9850749 37.1544965,23.5052622 37.7870232,23.5052622 C38.4190083,23.5052622 38.9318531,22.9850749 38.9318531,22.3433639 C38.9318531,21.701653 38.4190083,21.1809158 37.7870232,21.1809158 C37.1544965,21.1809158 36.6421933,21.701653 36.6421933,22.3433639" id="Fill-17" fill="#222222"></path>
                <path d="M31.8861669,28.3348658 L31.8861669,28.3348658 C31.6744221,28.1198624 31.6744221,27.7723377 31.8861669,27.5573342 L42.9218074,16.3518621 C43.1335522,16.1368587 43.4763513,16.1368587 43.6875546,16.3518621 C43.8992994,16.5663156 43.8992994,16.9143902 43.6875546,17.1293936 L32.651914,28.3348658 C32.4401692,28.5498692 32.0973701,28.5498692 31.8861669,28.3348658" id="Fill-19" fill="#222222"></path>
                <path d="M42.9220782,28.3348658 L31.8864376,17.1293936 C31.6746928,16.9143902 31.6746928,16.5663156 31.8864376,16.3518621 C32.0976409,16.1368587 32.44044,16.1368587 32.6521848,16.3518621 L43.6878254,27.5573342 C43.8990286,27.7723377 43.8990286,28.1198624 43.6878254,28.3348658 C43.4760806,28.5498692 43.1332814,28.5498692 42.9220782,28.3348658" id="Fill-21" fill="#222222"></path>
                <path d="M53.2897208,16.0081866 C49.849274,16.0081866 47.0505602,18.8499708 47.0505602,22.3433639 C47.0505602,25.8362072 49.849274,28.6785413 53.2897208,28.6785413 C56.7301675,28.6785413 59.5288814,25.8362072 59.5288814,22.3433639 C59.5288814,18.8499708 56.7301675,16.0081866 53.2897208,16.0081866 M53.2897208,29.778303 C49.2524894,29.778303 45.9674666,26.4427257 45.9674666,22.3433639 C45.9674666,18.2434523 49.2524894,14.9084248 53.2897208,14.9084248 C57.3274937,14.9084248 60.611975,18.2434523 60.611975,22.3433639 C60.611975,26.4427257 57.3274937,29.778303 53.2897208,29.778303" id="Fill-23" fill="#222222"></path>
                <path d="M53.2897208,19.4506057 C51.7192351,19.4506057 50.4411846,20.7483245 50.4411846,22.342979 C50.4411846,23.9381834 51.7192351,25.2359022 53.2897208,25.2359022 C54.8602065,25.2359022 56.1382569,23.9381834 56.1382569,22.342979 C56.1382569,20.7483245 54.8602065,19.4506057 53.2897208,19.4506057 M53.2897208,26.3356639 C51.121909,26.3356639 49.358091,24.544702 49.358091,22.342979 C49.358091,20.1418059 51.121909,18.350844 53.2897208,18.350844 C55.4575326,18.350844 57.2213505,20.1418059 57.2213505,22.342979 C57.2213505,24.544702 55.4575326,26.3356639 53.2897208,26.3356639" id="Fill-25" fill="#222222"></path>
                <path d="M52.1449992,22.3433639 C52.1449992,22.9850749 52.6573024,23.5052622 53.2898291,23.5052622 C53.9218142,23.5052622 54.434659,22.9850749 54.434659,22.3433639 C54.434659,21.701653 53.9218142,21.1809158 53.2898291,21.1809158 C52.6573024,21.1809158 52.1449992,21.701653 52.1449992,22.3433639" id="Fill-27" fill="#222222"></path>
                <path d="M47.3890269,28.3348658 L47.3890269,28.3348658 C47.1772821,28.1198624 47.1772821,27.7723377 47.3890269,27.5573342 L58.4246675,16.3518621 C58.6364123,16.1368587 58.9792114,16.1368587 59.1904146,16.3518621 C59.4021594,16.5663156 59.4021594,16.9143902 59.1904146,17.1293936 L48.1547741,28.3348658 C47.9430293,28.5498692 47.6002302,28.5498692 47.3890269,28.3348658" id="Fill-29" fill="#222222"></path>
                <path d="M58.4248841,28.3348658 L47.3892435,17.1293936 C47.1774987,16.9143902 47.1774987,16.5663156 47.3892435,16.3518621 C47.6004468,16.1368587 47.9432459,16.1368587 48.1549907,16.3518621 L59.1906312,27.5573342 C59.4018345,27.7723377 59.4018345,28.1198624 59.1906312,28.3348658 C58.9788864,28.5498692 58.6360873,28.5498692 58.4248841,28.3348658" id="Fill-31" fill="#222222"></path>
                <path d="M9.51800982,29.2448086 L5.27661533,29.2448086 C4.33757319,29.2448086 3.57561686,28.4716761 3.57561686,27.5176328 L3.57561686,11.7745438 C3.57561686,10.8205006 4.33757319,10.0473681 5.27661533,10.0473681 L9.51800982,10.0473681 C10.4575935,10.0473681 11.2190083,10.8205006 11.2190083,11.7745438 L11.2190083,27.5176328 C11.2190083,28.4716761 10.4575935,29.2448086 9.51800982,29.2448086 Z" id="Stroke-33" stroke="#222222" stroke-width="1.08358321"></path>
                <path d="M8.61871721,14.2594555 L6.00467084,14.2594555 C5.60067693,14.2594555 5.27358267,13.9273274 5.27358267,13.5165664 C5.27358267,13.1069052 5.60067693,12.7742273 6.00467084,12.7742273 L8.61871721,12.7742273 C9.02271112,12.7742273 9.35034693,13.1069052 9.35034693,13.5165664 C9.35034693,13.9273274 9.02271112,14.2594555 8.61871721,14.2594555" id="Fill-35" fill="#222222"></path>
                <path d="M23.9946387,5.14858947 L16.134087,5.14858947 C15.4869386,5.14858947 14.9616382,4.61575492 14.9616382,3.95809741 C14.9616382,3.30098979 15.4869386,2.76815523 16.134087,2.76815523 L23.9946387,2.76815523 C24.6417871,2.76815523 25.1670875,3.30098979 25.1670875,3.95809741 C25.1670875,4.61575492 24.6417871,5.14858947 23.9946387,5.14858947" id="Fill-37" fill="#222222"></path>
                <path d="M32.2979049,5.14858947 L29.5398071,5.14858947 C28.8921171,5.14858947 28.3673583,4.61575492 28.3673583,3.95809741 C28.3673583,3.30098979 28.8921171,2.76815523 29.5398071,2.76815523 L32.2979049,2.76815523 C32.9450533,2.76815523 33.4703537,3.30098979 33.4703537,3.95809741 C33.4703537,4.61575492 32.9450533,5.14858947 32.2979049,5.14858947" id="Fill-39" fill="#222222"></path>
                <path d="M51.1364766,5.14858947 L48.3783787,5.14858947 C47.7306888,5.14858947 47.2064715,4.61575492 47.2064715,3.95809741 C47.2064715,3.30098979 47.7306888,2.76815523 48.3783787,2.76815523 L51.1364766,2.76815523 C51.783625,2.76815523 52.3089254,3.30098979 52.3089254,3.95809741 C52.3089254,4.61575492 51.783625,5.14858947 51.1364766,5.14858947" id="Fill-41" fill="#222222"></path>
                <path d="M59.4397428,5.14858947 L56.6816449,5.14858947 C56.033955,5.14858947 55.5091961,4.61575492 55.5091961,3.95809741 C55.5091961,3.30098979 56.033955,2.76815523 56.6816449,2.76815523 L59.4397428,2.76815523 C60.0868912,2.76815523 60.6121916,3.30098979 60.6121916,3.95809741 C60.6121916,4.61575492 60.0868912,5.14858947 59.4397428,5.14858947" id="Fill-43" fill="#222222"></path>
                <path d="M37.842965,5.14858947 L37.842965,5.14858947 C37.1958166,5.14858947 36.6705162,4.61575492 36.6705162,3.95809741 C36.6705162,3.30098979 37.1958166,2.76815523 37.842965,2.76815523 C38.4901134,2.76815523 39.0154138,3.30098979 39.0154138,3.95809741 C39.0154138,4.61575492 38.4901134,5.14858947 37.842965,5.14858947" id="Fill-45" fill="#222222"></path>
                <path d="M41.9188086,5.14858947 L41.9188086,5.14858947 C41.2716602,5.14858947 40.7463598,4.61575492 40.7463598,3.95809741 C40.7463598,3.30098979 41.2716602,2.76815523 41.9188086,2.76815523 C42.5664986,2.76815523 43.0912574,3.30098979 43.0912574,3.95809741 C43.0912574,4.61575492 42.5664986,5.14858947 41.9188086,5.14858947" id="Fill-47" fill="#222222"></path>
                <path d="M8.61871721,18.3943396 L6.00467084,18.3943396 C5.60067693,18.3943396 5.27358267,18.0622115 5.27358267,17.6520004 C5.27358267,17.2417893 5.60067693,16.9091114 6.00467084,16.9091114 L8.61871721,16.9091114 C9.02271112,16.9091114 9.35034693,17.2417893 9.35034693,17.6520004 C9.35034693,18.0622115 9.02271112,18.3943396 8.61871721,18.3943396" id="Fill-49" fill="#222222"></path>
                <path d="M8.61871721,22.5294436 L6.00467084,22.5294436 C5.60067693,22.5294436 5.27358267,22.1973156 5.27358267,21.7865546 C5.27358267,21.3768933 5.60067693,21.0442154 6.00467084,21.0442154 L8.61871721,21.0442154 C9.02271112,21.0442154 9.35034693,21.3768933 9.35034693,21.7865546 C9.35034693,22.1973156 9.02271112,22.5294436 8.61871721,22.5294436" id="Fill-51" fill="#222222"></path>
                <path d="M8.61871721,26.6642727 L6.00467084,26.6642727 C5.60067693,26.6642727 5.27358267,26.3321447 5.27358267,25.9219336 C5.27358267,25.5117225 5.60067693,25.1790445 6.00467084,25.1790445 L8.61871721,25.1790445 C9.02271112,25.1790445 9.35034693,25.5117225 9.35034693,25.9219336 C9.35034693,26.3321447 9.02271112,26.6642727 8.61871721,26.6642727" id="Fill-53" fill="#222222"></path>
            </g>
        </g>
    </g>
</svg>