<?xml version="1.0" encoding="UTF-8"?>
<svg width="66px" height="14px" viewBox="0 0 66 14" version="1.1" xmlns="http://www.w3.org/2000/svg" xmlns:xlink="http://www.w3.org/1999/xlink">
    <title>Group 31</title>
    <g id="Arreglos" stroke="none" stroke-width="1" fill="none" fill-rule="evenodd">
        <g id="Artboard" transform="translate(-137.000000, -46.000000)">
            <g id="Group-31" transform="translate(138.000000, 47.000000)">
                <path d="M62.1121679,11.9999475 L1.88783212,11.9999475 C0.845354544,11.9999475 0,11.1801699 0,10.1692334 L0,1.83071409 C0,0.819777594 0.845354544,0 1.88783212,0 L62.1121679,0 C63.1546455,0 64,0.819777594 64,1.83071409 L64,10.1692334 C64,11.1801699 63.1546455,11.9999475 62.1121679,11.9999475 Z" id="Stroke-1" stroke="#222222" stroke-width="1.08309359"></path>
                <path d="M8.54983246,10.6293277 L3.49557624,10.6293277 C2.84517854,10.6293277 2.31825351,10.1183452 2.31825351,9.48762587 C2.31825351,8.8574317 2.84517854,8.34644925 3.49557624,8.34644925 L8.54983246,8.34644925 C9.20023016,8.34644925 9.72715519,8.8574317 9.72715519,9.48762587 C9.72715519,10.1183452 9.20023016,10.6293277 8.54983246,10.6293277" id="Fill-3" fill="#222222"></path>
                <path d="M20.0764393,5.28769677 L15.0221831,5.28769677 C14.3717854,5.28769677 13.8448604,4.77671433 13.8448604,4.14652015 C13.8448604,3.51580081 14.3717854,3.00481836 15.0221831,3.00481836 L20.0764393,3.00481836 C20.726837,3.00481836 21.2537621,3.51580081 21.2537621,4.14652015 C21.2537621,4.77671433 20.726837,5.28769677 20.0764393,5.28769677" id="Fill-5" fill="#222222"></path>
                <path d="M29.0421256,5.28769677 L23.9878694,5.28769677 C23.3374717,5.28769677 22.8105466,4.77671433 22.8105466,4.14652015 C22.8105466,3.51580081 23.3374717,3.00481836 23.9878694,3.00481836 L29.0421256,3.00481836 C29.6925233,3.00481836 30.2189068,3.51580081 30.2189068,4.14652015 C30.2189068,4.77671433 29.6925233,5.28769677 29.0421256,5.28769677" id="Fill-7" fill="#222222"></path>
                <path d="M47.4028905,5.28769677 L42.3480927,5.28769677 C41.6982366,5.28769677 41.1713116,4.77671433 41.1713116,4.14652015 C41.1713116,3.51580081 41.6982366,3.00481836 42.3480927,3.00481836 L47.4028905,3.00481836 C48.0527467,3.00481836 48.5796717,3.51580081 48.5796717,4.14652015 C48.5796717,4.77671433 48.0527467,5.28769677 47.4028905,5.28769677" id="Fill-9" fill="#222222"></path>
                <path d="M32.3603994,5.28769677 L32.3603994,5.28769677 C31.7105432,5.28769677 31.1836182,4.77671433 31.1836182,4.14652015 C31.1836182,3.51580081 31.7105432,3.00481836 32.3603994,3.00481836 C33.0102555,3.00481836 33.5371806,3.51580081 33.5371806,4.14652015 C33.5371806,4.77671433 33.0102555,5.28769677 32.3603994,5.28769677" id="Fill-11" fill="#222222"></path>
                <path d="M35.5287731,5.28769677 L35.5287731,5.28769677 C34.8789169,5.28769677 34.3519919,4.77671433 34.3519919,4.14652015 C34.3519919,3.51580081 34.8789169,3.00481836 35.5287731,3.00481836 C36.1786292,3.00481836 36.7055542,3.51580081 36.7055542,4.14652015 C36.7055542,4.77671433 36.1786292,5.28769677 35.5287731,5.28769677" id="Fill-13" fill="#222222"></path>
                <path d="M33.7216856,10.6293277 L33.7216856,10.6293277 C33.0718294,10.6293277 32.5449044,10.1183452 32.5449044,9.48762587 C32.5449044,8.8574317 33.0718294,8.34644925 33.7216856,8.34644925 C34.3720833,8.34644925 34.8984667,8.8574317 34.8984667,9.48762587 C34.8984667,10.1183452 34.3720833,10.6293277 33.7216856,10.6293277" id="Fill-15" fill="#222222"></path>
                <path d="M37.1240616,10.6293277 L37.1240616,10.6293277 C36.4742054,10.6293277 35.9472804,10.1183452 35.9472804,9.48762587 C35.9472804,8.8574317 36.4742054,8.34644925 37.1240616,8.34644925 C37.7739178,8.34644925 38.3008428,8.8574317 38.3008428,9.48762587 C38.3008428,10.1183452 37.7739178,10.6293277 37.1240616,10.6293277" id="Fill-17" fill="#222222"></path>
                <path d="M38.6971467,5.28769677 L38.6971467,5.28769677 C38.046749,5.28769677 37.5203655,4.77671433 37.5203655,4.14652015 C37.5203655,3.51580081 38.046749,3.00481836 38.6971467,3.00481836 C39.3470029,3.00481836 39.8739279,3.51580081 39.8739279,4.14652015 C39.8739279,4.77671433 39.3470029,5.28769677 38.6971467,5.28769677" id="Fill-19" fill="#222222"></path>
                <path d="M51.7514029,5.28769677 L50.4013268,5.28769677 C49.7509291,5.28769677 49.2240041,4.77671433 49.2240041,4.14652015 C49.2240041,3.51580081 49.7509291,3.00481836 50.4013268,3.00481836 L51.7514029,3.00481836 C52.4018006,3.00481836 52.9281841,3.51580081 52.9281841,4.14652015 C52.9281841,4.77671433 52.4018006,5.28769677 51.7514029,5.28769677" id="Fill-21" fill="#222222"></path>
                <path d="M45.5130005,10.6293277 L44.1623828,10.6293277 C43.5125267,10.6293277 42.9856016,10.1183452 42.9856016,9.48762587 C42.9856016,8.8574317 43.5125267,8.34644925 44.1623828,8.34644925 L45.5130005,8.34644925 C46.1628567,8.34644925 46.6897817,8.8574317 46.6897817,9.48762587 C46.6897817,10.1183452 46.1628567,10.6293277 45.5130005,10.6293277" id="Fill-23" fill="#222222"></path>
                <path d="M51.7135488,10.6293277 L50.3634727,10.6293277 C49.713075,10.6293277 49.1861499,10.1183452 49.1861499,9.48762587 C49.1861499,8.8574317 49.713075,8.34644925 50.3634727,8.34644925 L51.7135488,8.34644925 C52.3639465,8.34644925 52.89033,8.8574317 52.89033,9.48762587 C52.89033,10.1183452 52.3639465,10.6293277 51.7135488,10.6293277" id="Fill-25" fill="#222222"></path>
                <path d="M26.4811508,10.6293277 L21.426353,10.6293277 C20.7764969,10.6293277 20.2495718,10.1183452 20.2495718,9.48762587 C20.2495718,8.8574317 20.7764969,8.34644925 21.426353,8.34644925 L26.4811508,8.34644925 C27.1310069,8.34644925 27.657932,8.8574317 27.657932,9.48762587 C27.657932,10.1183452 27.1310069,10.6293277 26.4811508,10.6293277" id="Fill-27" fill="#222222"></path>
                <path d="M0.000108309359,6.97577691 L10.8066746,6.97577691 C11.327101,6.97577691 11.748966,7.38487797 11.748966,7.88903331 L11.748966,12" id="Stroke-29" stroke="#222222" stroke-width="1.08309359"></path>
            </g>
        </g>
    </g>
</svg>